HIERARCHY
ROOT Hips
{
	OFFSET 0.000000 0.000000 0.000000 
	CHANNELS 6 Xposition Yposition Zposition Zrotation Yrotation Xrotation
	JOINT LeftUpLeg
	{
		OFFSET 1.363060 -1.794630 0.839290 
		CHANNELS 3 Zrotation Yrotation Xrotation
		JOINT LeftLeg
		{
			OFFSET 2.448110 -6.726130 0.000000 
			CHANNELS 3 Zrotation Yrotation Xrotation
			JOINT LeftFoot
			{
				OFFSET 2.562200 -7.039590 0.000000 
				CHANNELS 3 Zrotation Yrotation Xrotation
				JOINT LeftToeBase
				{
					OFFSET 0.157640 -0.433110 2.322550 
					CHANNELS 3 Zrotation Yrotation Xrotation
					End Site
					{
						OFFSET 0.000000 0.000000 0.000000 
					}
				}
			}
		}
	}
	JOINT RightUpLeg
	{
		OFFSET -1.305520 -1.794630 0.839290 
		CHANNELS 3 Zrotation Yrotation Xrotation
		JOINT RightLeg
		{
			OFFSET -2.542530 -6.985550 0.000000 
			CHANNELS 3 Zrotation Yrotation Xrotation
			JOINT RightFoot
			{
				OFFSET -2.568260 -7.056230 0.000000 
				CHANNELS 3 Zrotation Yrotation Xrotation
				JOINT RightToeBase
				{
					OFFSET -0.164730 -0.452590 2.363150 
					CHANNELS 3 Zrotation Yrotation Xrotation
					End Site
					{
						OFFSET 0.000000 0.000000 0.000000 
					}
				}
			}
		}
	}
	JOINT Spine
	{
		OFFSET 0.028270 2.035590 -0.193380 
		CHANNELS 3 Zrotation Yrotation Xrotation
		JOINT Spine1
		{
			OFFSET 0.056720 2.048850 -0.042750 
			CHANNELS 3 Zrotation Yrotation Xrotation
			JOINT Neck1
			{
				OFFSET -0.054170 1.746240 0.172020 
				CHANNELS 3 Zrotation Yrotation Xrotation
				JOINT Head
				{
					OFFSET 0.104070 1.761360 -0.123970 
					CHANNELS 3 Zrotation Yrotation Xrotation
					End Site
					{
						OFFSET 0.000000 0.000000 0.000000 
					}
				}
			}
			JOINT LeftArm
			{
				OFFSET 3.362410 1.200890 -0.311210 
				CHANNELS 3 Zrotation Yrotation Xrotation
				JOINT LeftForeArm
				{
					OFFSET 4.983000 -0.000000 -0.000000 
					CHANNELS 3 Zrotation Yrotation Xrotation
					JOINT LeftHand
					{
						OFFSET 3.483560 -0.000000 -0.000000 
						CHANNELS 3 Zrotation Yrotation Xrotation
						JOINT LeftHandIndex1
						{
							OFFSET 0.715260 -0.000000 -0.000000 
							CHANNELS 3 Zrotation Yrotation Xrotation
							End Site
							{
								OFFSET 0.000000 0.000000 0.000000 
							}
						}
					}
				}
			}
			JOINT RightArm
			{
				OFFSET -3.136600 1.374050 -0.404650 
				CHANNELS 3 Zrotation Yrotation Xrotation
				JOINT RightForeArm
				{
					OFFSET -5.241900 -0.000000 -0.000000 
					CHANNELS 3 Zrotation Yrotation Xrotation
					JOINT RightHand
					{
						OFFSET -3.444170 -0.000000 -0.000000 
						CHANNELS 3 Zrotation Yrotation Xrotation
						JOINT RightHandIndex1
						{
							OFFSET -0.622530 -0.000000 -0.000000 
							CHANNELS 3 Zrotation Yrotation Xrotation
							End Site
							{
								OFFSET 0.000000 0.000000 0.000000 
							}
						}
					}
				}
			}
		}
	}
}
MOTION
Frames: 10
Frame Time: 0.041667
2.113687 33.172193 -4.977874 175.221649 -80.817746 -169.549447 -12.547216 -15.091837 -28.595122 2.787153 10.368403 34.950015 2.130028 -10.295818 23.213022 1.085200 6.620900 18.597100 37.781704 21.645562 2.068412 -2.126888 -5.878120 25.317027 6.698723 -26.933103 -22.902167 -0.007600 -0.563000 1.547100 -12.226408 14.201744 4.976391 -2.686774 7.171921 -5.467512 58.168029 -20.074915 -36.648203 44.266200 -21.246000 -7.823900 -68.998521 8.351357 11.303537 23.434161 -33.406803 -7.864619 0.001751 -1.169712 -4.314856 -7.125000 0.000000 0.000000 87.308801 -5.654780 -14.405429 -74.685026 56.629726 -51.013428 -1.824303 1.826856 84.935228 7.125000 0.000000 0.000000 
2.111555 33.175391 -4.970605 174.874844 -80.338722 -169.200757 -12.536018 -15.214696 -28.476766 2.786229 10.350817 34.904171 2.108868 -10.106423 23.107859 1.090000 6.634900 18.638100 37.556806 21.689822 2.138976 -2.109391 -5.854214 25.210147 6.676271 -26.762295 -22.633826 -0.006000 -0.499300 1.371900 -12.396931 14.274137 5.007408 -2.675034 7.208774 -5.457179 58.084459 -19.978059 -36.537621 44.439700 -21.136100 -7.929000 -69.049291 8.348469 11.392662 23.165598 -33.113735 -7.699924 -0.002449 -1.169315 -4.173570 -7.125000 0.000000 0.000000 87.401245 -5.210969 -14.726592 -74.413093 56.541632 -50.713793 -1.819146 1.790818 85.388212 7.125000 0.000000 0.000000 
2.109908 33.178492 -4.966826 174.826786 -80.000872 -169.124406 -12.453896 -15.352782 -28.373967 2.769234 10.315199 34.786288 2.089670 -9.858779 23.093767 1.166200 6.855100 19.286900 37.439221 21.759070 2.136775 -2.112483 -5.862704 25.220334 6.648347 -26.626976 -22.479256 -0.004400 -0.430400 1.182600 -12.416430 14.277105 5.043285 -2.619434 7.213408 -5.421772 58.015750 -19.885005 -36.437614 44.610700 -21.027800 -7.993800 -69.235216 8.359619 11.351595 22.934464 -32.854267 -7.555604 -0.010344 -1.170070 -3.928254 -7.125000 0.000000 0.000000 87.426785 -4.811384 -14.997677 -74.307296 56.499741 -50.570560 -1.810400 1.759377 85.792739 7.125000 0.000000 0.000000 
2.108066 33.182369 -4.958782 174.427925 -79.723255 -168.710468 -12.429644 -15.538780 -28.225062 2.744109 10.261225 34.620755 2.065568 -9.559335 23.107659 1.258800 7.112300 20.048600 37.245482 21.771684 2.047360 -2.130893 -5.898998 25.318474 6.593945 -26.425225 -22.332113 -0.003000 -0.353100 0.970100 -12.412082 14.191266 5.099272 -2.583073 7.171693 -5.397700 57.978397 -19.796413 -36.271607 44.732900 -20.925000 -7.976000 -69.594706 8.363594 10.972777 22.777689 -32.675044 -7.456710 -0.009125 -1.174984 -3.698470 -7.125000 0.000000 0.000000 87.295250 -4.545866 -15.012132 -74.386268 56.511171 -50.611103 -1.798234 1.736903 86.045499 7.125000 0.000000 0.000000 
2.108745 33.186342 -4.945505 174.698135 -79.418606 -168.801549 -12.254233 -15.856996 -28.169840 2.722151 10.209763 34.449552 2.030757 -9.234216 22.960386 1.316100 7.266300 20.506800 37.064402 21.828338 1.765501 -2.144955 -5.931006 25.397436 6.502815 -26.098718 -22.113530 -0.005300 -0.471600 1.296000 -12.489872 14.170514 5.030990 -2.625753 7.168404 -5.290623 57.932112 -19.722367 -36.190088 44.889000 -20.833500 -8.008400 -69.798657 8.266477 10.857935 22.572473 -32.438067 -7.330740 -0.009852 -1.174572 -3.619714 -7.125000 0.000000 0.000000 87.258109 -4.274242 -15.219398 -74.569445 56.549750 -50.738712 -1.782393 1.713323 86.380971 7.125000 0.000000 0.000000 
2.108551 33.189056 -4.928932 175.458842 -78.951778 -169.296403 -12.161621 -15.901594 -28.279480 2.683536 10.164317 34.279789 2.016476 -9.297007 22.503176 1.109300 6.691700 18.805200 36.885804 21.848725 1.400258 -2.166267 -5.965358 25.458104 6.496082 -25.853842 -21.503258 -0.002600 -0.327900 0.900900 -12.593133 14.252520 4.824618 -2.719455 7.223832 -5.155251 57.891822 -19.649876 -36.071773 45.062000 -20.753200 -8.046400 -69.995831 8.192113 10.762776 22.367279 -32.199135 -7.208939 0.003715 -1.172279 -3.167747 -7.125000 0.000000 0.000000 87.292365 -4.005760 -15.527117 -74.582854 56.541480 -50.709340 -1.774496 1.690730 86.718581 7.125000 0.000000 0.000000 
2.099829 33.192157 -4.917012 175.859044 -78.644649 -169.724513 -12.123878 -15.992220 -28.076564 2.648926 10.107676 34.126066 2.005186 -9.466779 21.967120 0.903300 6.056900 16.949600 36.812703 21.782784 1.395210 -2.181589 -5.984761 25.499671 6.501445 -25.726223 -21.114688 -0.000600 -0.156100 0.428900 -12.641600 14.248649 5.034691 -2.772060 7.218020 -5.005510 57.825521 -19.562617 -35.952922 45.150500 -20.645300 -8.095200 -70.197441 7.963257 10.602424 22.223863 -32.022569 -7.119217 0.023776 -1.187192 -2.535375 -7.125000 0.000000 0.000000 87.354744 -3.591435 -15.705322 -74.602142 56.531986 -50.692523 -1.765780 1.666024 87.035323 7.125000 0.000000 0.000000 
2.088780 33.197681 -4.913911 176.206856 -78.180468 -169.987776 -12.055252 -15.984865 -27.955667 2.612206 10.056118 33.949100 1.984702 -9.415223 21.537124 0.823200 5.788800 16.173000 36.734469 21.955832 1.441172 -2.187391 -5.996850 25.515888 6.474709 -25.565929 -20.874388 -0.000100 -0.074100 0.203700 -12.659197 14.234996 4.994877 -2.712184 7.219911 -4.899588 57.745212 -19.426627 -35.720713 45.271000 -20.502600 -8.133100 -70.398844 7.915397 10.377248 22.078645 -31.847966 -7.028827 0.025903 -1.188949 -2.195303 -7.125000 0.000000 0.000000 87.372595 -3.280095 -15.702917 -74.512839 56.493377 -50.586580 -1.762975 1.642807 87.392423 7.125000 0.000000 0.000000 
2.084904 33.200588 -4.904704 176.502860 -78.038238 -170.301001 -11.877300 -16.383987 -27.676626 2.582604 9.986240 33.760666 1.960524 -9.310905 21.249574 0.807800 5.735900 16.020100 36.687879 21.828404 1.401731 -2.191875 -6.001523 25.511787 6.486284 -25.496119 -20.590380 -0.000100 0.074300 -0.204000 -12.629001 14.097561 4.952063 -2.726156 7.154269 -4.901588 57.584943 -19.362555 -35.492074 45.522800 -20.365400 -8.181000 -70.659113 7.890053 10.256173 21.922398 -31.662822 -6.933827 0.006469 -1.174754 -2.178284 -7.125000 0.000000 0.000000 87.315655 -2.864417 -15.765087 -74.201724 56.393377 -50.259159 -1.763648 1.603354 87.826480 7.125000 0.000000 0.000000 
2.083450 33.203787 -4.896563 176.325120 -77.854604 -170.051920 -11.802343 -16.726568 -27.504322 2.549331 9.917076 33.581103 1.948277 -9.407253 20.820645 0.736600 5.483100 15.291900 36.521559 21.790804 1.279157 -2.193266 -6.005947 25.490337 6.512697 -25.462336 -20.291406 -0.001300 0.235900 -0.648100 -12.678988 14.012284 4.786870 -2.710019 7.119708 -4.929488 57.532033 -19.249011 -35.333934 45.665200 -20.256700 -8.222200 -70.870786 7.844493 10.345138 21.791290 -31.505257 -6.853560 -0.013846 -1.165067 -2.351091 -7.125000 0.000000 0.000000 87.312777 -2.494521 -15.921754 -73.857813 56.287452 -49.903335 -1.768143 1.567230 88.249740 7.125000 0.000000 0.000000 
